# xmcd
#
# Track frame offsets: 
#        150
#        13857
#        26940
#        41101
#        55418
#        68337
#        85047
#        109833
#        124826
#        139433
#        153921
#        167466
#        175271
#        186311
#        201300
#        212924
#        234957
#        248633
#        260458
#
# Disc length: 3892 seconds
#
# Revision: 1
# Processed by: cddbd v1.5.2PL0 Copyright (c) Steve Scherf et al.
# Submitted via: ExactAudioCopy v1.2
#
DISCID=0e0f3213
DTITLE=Sarah Vaughan - Connoisseur Jazz Cuts
DYEAR=2012
DGENRE=Jazz
TTITLE0=Misty
TTITLE1=After Hours
TTITLE2=Pennies from Heaven
TTITLE3=East of the Sun (West of the Moon)
TTITLE4=Can't Get out of this Mood
TTITLE5=Honeysuckle Rose
TTITLE6=Detour ahead
TTITLE7=Stardust
TTITLE8=It Might as well Be Spring
TTITLE9=Penthouse Serenade
TTITLE10=Corner to Corner
TTITLE11=I Cried for You
TTITLE12=No Smoke Blues
TTITLE13=All of Me
TTITLE14=If I Knew then (what I Know now)
TTITLE15=Embraceable You
TTITLE16=These Things I Offer You
TTITLE17=I'm Scared
TTITLE18=Thanks for the Memory
EXTD=YEAR: 2012
EXTT0=
EXTT1=
EXTT2=
EXTT3=
EXTT4=
EXTT5=
EXTT6=
EXTT7=
EXTT8=
EXTT9=
EXTT10=
EXTT11=
EXTT12=
EXTT13=
EXTT14=
EXTT15=
EXTT16=
EXTT17=
EXTT18=
PLAYORDER=
